<?xml version="1.0" standalone="no"?>
<!DOCTYPE svg PUBLIC "-//W3C//DTD SVG 20010904//EN"
 "http://www.w3.org/TR/2001/REC-SVG-20010904/DTD/svg10.dtd">
<svg version="1.0" xmlns="http://www.w3.org/2000/svg"
 width="354.000000pt" height="354.000000pt" viewBox="0 0 354.000000 354.000000"
 preserveAspectRatio="xMidYMid meet">
<metadata>
Created by potrace 1.11, written by Peter Selinger 2001-2013
</metadata>
<g transform="translate(0.000000,354.000000) scale(0.100000,-0.100000)"
fill="#000000" stroke="none">
<path d="M79 2565 c-8 -193 0 -310 31 -430 50 -195 154 -351 304 -454 104 -72
283 -139 415 -157 25 -3 55 -8 66 -10 11 -2 50 -5 88 -5 37 0 67 -4 67 -9 0
-4 -7 -27 -15 -51 -30 -85 -21 -179 26 -276 58 -121 160 -181 306 -181 91 0
110 9 62 29 -49 20 -127 106 -161 178 -27 57 -32 77 -32 146 -1 59 4 92 18
123 10 23 22 42 25 42 3 0 35 -7 71 -16 148 -34 264 -120 333 -246 37 -67 77
-182 78 -227 0 -14 11 12 25 59 71 238 225 383 440 415 38 5 42 3 52 -22 18
-44 29 -105 26 -146 -7 -112 -114 -273 -207 -312 -29 -12 -29 -13 -9 -19 71
-23 211 2 276 47 113 81 177 245 145 373 -23 88 -26 80 33 83 368 14 641 154
792 405 34 57 81 168 92 217 29 136 42 381 24 449 -6 23 -7 21 -14 -15 -16
-86 -128 -305 -189 -371 -142 -152 -253 -227 -412 -277 -71 -23 -207 -44 -295
-46 -193 -5 -361 -63 -519 -181 -71 -54 -179 -158 -229 -224 -12 -16 -23 -27
-25 -25 -48 72 -161 188 -246 253 -163 126 -320 178 -571 190 -404 20 -701
250 -841 651 -27 77 -28 79 -30 40z" />
</g>
</svg>